# xmcd
#
# Track frame offsets:
#	150
#	18440
#	37662
#	57327
#	77372
#	97885
#	117757
#	136827
#	155212
#	171862
#
# Disc length: 2543 seconds
#
# Revision: 3
# Processed by: cddbd v1.4PL0 Copyright (c) Steve Scherf et al.
# Submitted via: MusicManager 7.0.3.0 
#
DISCID=6e09ed0a
DTITLE=Ely, Joe  - Love And Danger
DYEAR=1992
DGENRE=Country
TTITLE0=Sleepless In Love
TTITLE1=Pins And Needles
TTITLE2=Love Is In The Beating Of Hearts
TTITLE3=Slow You Down
TTITLE4=The Road Goes On Forever
TTITLE5=Settle For Love
TTITLE6=Highways And Heartaches
TTITLE7=Whenever Kindness Fails
TTITLE8=She Collected
TTITLE9=Every Night About This Time
EXTD=
EXTT0=
EXTT1=
EXTT2=
EXTT3=
EXTT4=
EXTT5=
EXTT6=
EXTT7=
EXTT8=
EXTT9=
PLAYORDER=
